<?xml version="1.0" encoding="UTF-8" standalone="no"?>
<svg
   version="1.0"
   width="1971px"
   height="473px"
   viewBox="0 0 1971 473"
   preserveAspectRatio="xMidYMid meet"
   id="svg13"
   sodipodi:docname="logo.svg"
   inkscape:version="1.3.2 (091e20e, 2023-11-25)"
   xmlns:inkscape="http://www.inkscape.org/namespaces/inkscape"
   xmlns:sodipodi="http://sodipodi.sourceforge.net/DTD/sodipodi-0.dtd"
   xmlns="http://www.w3.org/2000/svg"
   xmlns:svg="http://www.w3.org/2000/svg">
  <defs
     id="defs13" />
  <sodipodi:namedview
     id="namedview13"
     pagecolor="#ffffff"
     bordercolor="#000000"
     borderopacity="0.25"
     inkscape:showpageshadow="2"
     inkscape:pageopacity="0.0"
     inkscape:pagecheckerboard="0"
     inkscape:deskcolor="#d1d1d1"
     inkscape:zoom="0.41907661"
     inkscape:cx="984.3069"
     inkscape:cy="236.23366"
     inkscape:window-width="1920"
     inkscape:window-height="1027"
     inkscape:window-x="1512"
     inkscape:window-y="25"
     inkscape:window-maximized="1"
     inkscape:current-layer="svg13" />
  <path
     d="M 117,375.4 C 106.1,374 90.3,369.8 79.8,365.5 78.5,365 78,365.3 78,366.4 c 0,0.9 -0.7,1.6 -1.5,1.6 -1.3,0 -1.5,-6.8 -1.5,-55 v -55 h 2.5 c 1.7,0 2.5,0.6 2.5,1.7 0,0.9 1.7,5.1 3.7,9.2 15.8,31.9 58.9,39 84.2,13.9 21.4,-21.1 21,-55.5 -0.8,-76 -16.7,-15.8 -39,-19.3 -59.7,-9.2 -11.7,5.7 -23.3,18.8 -26.4,29.8 -1.3,4.7 -1.7,5 -4.4,4 -1.4,-0.6 -1.6,-6.3 -1.6,-55 0,-47.7 0.2,-54.4 1.5,-54.4 0.8,0 1.5,0.7 1.5,1.6 0,1.1 0.5,1.4 1.7,0.9 6.5,-2.5 20,-6.6 26.8,-8.1 12.2,-2.6 36.9,-2.4 50.2,0.4 50.6,10.9 88.7,48.2 101.4,99.2 2,8.3 2.3,12 2.4,29 0,18 -0.2,20.3 -2.7,30.3 -6.4,25.1 -17.6,44.8 -35.8,62.8 -17.8,17.6 -39.3,29.4 -64,35 -8.3,1.9 -33.1,3.3 -41,2.3 z"
     id="path1"
     style="fill:#095e9e" />
  <path
     d="M 415.5,374.5 C 382,369 351.9,350.9 331.6,324 318.8,307 309.8,286.2 306.4,265.5 304.3,252.6 305,229.4 307.9,217 320.7,161.4 365.3,121.5 422,115 c 38.8,-4.6 79.7,10.8 107.8,40.4 23.4,24.8 35.5,55.7 35.4,90.1 -0.1,36.5 -13.8,68.5 -40.3,94 -18.3,17.5 -37.8,27.9 -62.9,33.6 -11.6,2.7 -34.6,3.3 -46.5,1.4 z m 33,-78 c 18.4,-4.8 33.6,-20.3 38,-38.6 9,-38.2 -23.2,-72 -61.6,-64.9 -3,0.5 -9.1,2.8 -13.5,5 -19.8,9.7 -31.5,31.9 -28.6,53.9 2.9,21.3 19.1,39.7 39.5,44.7 7.3,1.7 19.2,1.7 26.2,-0.1 z"
     id="path2"
     style="fill:#095e9e" />
  <path
     d="m 720,374.5 c -36.7,-5.8 -69.1,-26.7 -89.4,-57.5 -21.2,-32.1 -27,-71.6 -16.2,-109.2 12.5,-43 48.5,-77.9 92.2,-89.3 43.4,-11.3 89.2,0.5 121.6,31.4 8.5,8.1 17.8,19 17.8,20.8 0,0.6 -59.6,42 -62.1,43.1 -0.4,0.2 -3.6,-2.5 -7.1,-6 -3.5,-3.5 -9,-7.8 -12.4,-9.5 -24.3,-12.9 -54.6,-5 -69.6,18.1 -11,17 -11,40.2 0,57.2 18.2,28.1 56.9,32.9 80.9,9.9 l 6.3,-6 30.2,22.6 c 16.6,12.5 30.4,23.2 30.6,23.8 0.6,1.9 -22.5,24.2 -30.5,29.5 -27.9,18.3 -61.4,25.9 -92.3,21.1 z"
     id="path3"
     style="fill:#095e9e" />
  <path
     d="m 994,374.5 c -53.2,-8.4 -95.4,-47.9 -107.8,-100.9 -2.2,-9.6 -2.6,-13.4 -2.6,-28.1 0,-12.8 0.4,-19.1 1.8,-25.4 10.4,-48 43.4,-85 88.6,-99.5 14.7,-4.7 23.4,-6.1 39.5,-6 15.9,0 24.9,1.3 38.5,5.6 20.6,6.5 36.5,16.3 52.6,32.3 19.4,19.2 30.3,39.1 36.5,66 1.8,8.2 2.2,13 2.2,26.5 0,18.1 -1.2,25.6 -6.4,41.5 -20,60 -81.3,97.7 -142.9,88 z m 32.3,-78 c 23.7,-6.2 39.7,-26.8 39.7,-51.2 0,-15.1 -5.1,-27.7 -15.4,-37.8 -27.9,-27.6 -74.3,-16.6 -87.3,20.7 -3.2,9.2 -3.4,23.2 -0.4,32.9 5.2,16.8 19.9,30.7 37.1,35.3 7.2,1.9 19.2,2 26.3,0.1 z"
     id="path4"
     style="fill:#095e9e" />
  <path
     d="m 1799,374.9 c -81,-9.1 -147,-69.4 -163.4,-149.1 -3.9,-18.9 -4.7,-42.7 -2.1,-61.9 11.2,-84.4 76.4,-149.7 161.7,-161.9 10.7,-1.6 38.7,-1.3 50,0.4 48,7.4 91.9,32.9 120.5,69.9 2.5,3.2 4.4,6 4.2,6.1 -0.9,0.8 -63,45.6 -65.3,47.1 l -2.6,1.7 -8.4,-8.9 c -26.9,-28.6 -66.1,-39.5 -103.1,-28.8 -11.2,3.3 -18,6.4 -28.1,13 -42.1,27.4 -57.9,83.4 -36.5,129.1 24.8,52.9 87.4,74.5 139.7,48.1 9.1,-4.6 22,-14.3 27.8,-20.9 l 4.4,-5.1 32.6,26.7 32.7,26.7 -2,2.7 c -3.5,5 -22.5,22.8 -31.1,29.1 -10,7.4 -24.1,15.9 -33.6,20.2 -30.2,13.5 -66,19.3 -97.4,15.8 z"
     id="path5"
     style="fill:#095e9e" />
  <path
     d="m 1202,188 c 0,-172.7 0.1,-182 1.8,-182 1.2,0 12.3,20.1 42.2,76.2 22.3,41.9 41.3,77 42.3,78 0.9,1 1.7,3 1.7,4.4 0,2.2 -0.2,2.5 -1.5,1.4 -1.3,-1.1 -1.5,10.3 -1.5,101.4 V 370 h -42.5 -42.5 z"
     id="path6"
     style="fill:#095e9e" />
  <path
     d="m 1490,267.5 c 0,-61.5 -0.4,-102.5 -0.9,-102.5 -0.5,0 -1.2,0.6 -1.4,1.3 -0.3,0.6 -0.6,-0.5 -0.6,-2.5 -0.1,-3.1 7,-17.1 40.7,-80.3 C 1566.6,10.7 1568.6,7 1571.3,7 h 2.7 V 188.5 370 h -42 -42 z"
     id="path7"
     style="fill:#095e9e" />
  <path
     d="M 0,366 C 0,263.7 0.1,259 1.8,259 c 1.4,0 2,1.4 3,7.2 0.7,3.9 2.6,11.3 4.3,16.2 9.8,29.3 28.9,53.4 55.4,70.1 l 9,5.6 0.3,-52 L 74,254 h 2.4 c 1.9,0 2.5,0.7 3,3.2 0.4,1.9 0.2,3.4 -0.4,3.6 -0.7,0.3 -1,34.9 -1,106.3 V 473 H 39 0 Z"
     id="path8"
     style="fill:#095389" />
  <path
     d="m 1355.2,291.8 c -3.3,-6.2 -8.1,-15.3 -10.7,-20.3 -28.3,-53.9 -56.2,-105.4 -58,-107 -2.3,-2 -84.5,-155.2 -84.5,-157.4 0,-0.7 1.1,-1.1 2.7,-0.9 2.4,0.3 5.9,6.3 40.2,70.8 l 37.6,70.5 0.3,-70.8 L 1283,6 h 2.3 c 1.9,0.1 8.8,12.5 51.7,93.1 27.2,51.2 50,93.7 50.5,94.5 0.7,1.1 13.7,-22.3 51.4,-93.1 27.7,-52 50.7,-94.5 51.2,-94.5 0.5,0 1,31.8 1.1,71.1 l 0.3,71.2 31.7,-59.4 c 17.4,-32.7 34.5,-64.7 38,-71.2 6,-11.3 6.4,-11.7 9.5,-11.7 2.6,0 3.3,0.4 3.3,2 0,1.1 -0.6,2 -1.2,2 -1,0 -72.8,132.8 -81.3,150.4 -1.1,2.2 -2.3,4.3 -2.6,4.6 -0.7,0.7 -61.9,115.7 -70.6,132.8 l -2.7,5.2 h -27.2 -27.3 z"
     id="path9"
     style="fill:#095389" />
  <path
     d="M 75.3,234.3 C 74.3,233.9 74,222.5 74,181.9 V 130 l -7.7,4.6 c -15.2,9 -31.4,24.3 -41.3,38.9 -9.9,14.7 -18.7,36.3 -20.6,50.5 -0.5,4 -1,5 -2.5,5 C 0.1,229 0,227.1 0,174.5 V 120 h 39 39 v 53.9 c 0,39.1 0.3,54 1.1,54.3 0.8,0.3 0.9,1.5 0.4,3.6 -0.6,3.1 -1.6,3.6 -4.2,2.5 z"
     id="path10"
     style="fill:#095389" />
  <g
     fill="#09496d"
     id="g13">
    <path
       d="M66.2 358.3 c-32.1 -18.6 -53.4 -46.5 -63 -82.3 -3.4 -12.9 -4.3 -41.7 -1.7 -55.5 5.7 -31.2 22.8 -59.3 48.1 -79.5 8.4 -6.7 24.9 -16.4 26.4 -15.5 0.7 0.4 1 18.7 1 53.1 0 28.8 0.4 52.4 0.8 52.4 0.4 0 0.8 5.8 0.7 13 0 7.1 -0.3 13 -0.7 13 -0.5 0 -0.8 23.9 -0.8 53 0 42.6 -0.3 53 -1.3 53 -0.7 0 -5 -2.1 -9.5 -4.7z"
       id="path11" />
    <path
       d="M1284.4 159.5 c-3.8 -6.7 -81.4 -152.6 -81.4 -153 0 -0.3 19.1 -0.5 42.5 -0.5 27.7 0 42.5 0.3 42.5 1 0 0.6 -0.4 1 -1 1 -0.6 0 -1.1 26.7 -1.2 76.8 -0.2 57.6 -0.6 76.2 -1.4 74.7z"
       id="path12" />
    <path
       d="M1488.2 83.8 l0.3 -77.3 43 -0.1 c23.7 -0.1 42.3 0 41.5 0.2 -1.6 0.5 -4.4 5.7 -52.5 96.1 -17.1 32 -31.3 58.3 -31.8 58.3 -0.4 0 -0.6 -34.8 -0.5 -77.2z"
       id="path13" />
  </g>
</svg>
